<svg xmlns="http://www.w3.org/2000/svg" viewBox="0 0 1024 1024">
  <defs>
    <linearGradient id="g" x1="0" x2="1" y1="0" y2="1">
      <stop offset="0%" stop-color="#a78bfa"/>
      <stop offset="100%" stop-color="#7c3aed"/>
    </linearGradient>
  </defs>
  <rect width="1024" height="1024" rx="80" fill="#0f172a"/>
  <circle cx="512" cy="512" r="348" fill="url(#g)"/>
  <circle cx="512" cy="512" r="244" fill="#f8fafc"/>
  <path d="M342 520c0-92 76-170 170-170s170 78 170 170-76 170-170 170-170-78-170-170Z" fill="#fde68a"/>
  <path d="M360 520c0-80 68-148 152-148s152 68 152 148-68 148-152 148-152-68-152-148Z" fill="none" stroke="#f59e0b" stroke-width="22"/>
  <path d="M382 520c0-56 48-104 106-104s106 48 106 104-48 104-106 104-106-48-106-104Z" fill="none" stroke="#facc15" stroke-width="18" stroke-dasharray="26 16"/>
  <text x="512" y="820" text-anchor="middle" font-family="Arial, sans-serif" font-size="84" font-weight="700" fill="#f8f5ff">Pasta</text>
</svg>
